<?xml version="1.0" encoding="utf-8"?>
<!-- Generator: Adobe Illustrator 19.2.1, SVG Export Plug-In . SVG Version: 6.00 Build 0)  -->
<svg version="1.1" id="Layer_1" xmlns="http://www.w3.org/2000/svg" xmlns:xlink="http://www.w3.org/1999/xlink" x="0px" y="0px"
	 viewBox="0 0 150 170.1" style="enable-background:new 0 0 150 170.1;" xml:space="preserve">
<style type="text/css">
	.st0{fill:#00853E;}
	.st1{opacity:0.75;}
	.st2{fill:#FFFFFF;}
	.st3{fill:#FFFFFF;stroke:#FFFFFF;stroke-width:5.423000e-02;stroke-miterlimit:10;}
	.st4{display:none;}
	.st5{display:inline;fill:#FFFFFF;}
</style>
<g>
	<g>
		<polygon class="st0" points="150,170.1 75,152.9 0,170.1 0,0 150,0 		"/>
	</g>
	<g class="st1">
		<path class="st2" d="M143.5,6.3v155.3l-68.2-15.8l-0.3-0.1l-0.3,0.1L6.5,161.6V6.3H143.5 M145,4.8H5v158.7l70-16.2l70,16.2V4.8
			L145,4.8z"/>
	</g>
	<g>
		<polygon class="st2" points="104.3,64.7 100.7,74.5 106.2,74.5 107.5,70.7 112.9,70.7 112.9,97.7 109.8,97.7 107.6,103.8 
			122.6,103.8 124.9,97.7 120.7,97.7 120.7,70.7 127,70.7 126.9,74.5 130.7,74.5 134.3,64.6 		"/>
		<path class="st2" d="M43.9,64.7l-2.3,6.1h3.8v17.7c0,3.3-0.6,5.1-2.2,6.7c-1.2,1.3-3.4,2.1-5.6,2.1c-2.6,0-5-0.9-6.5-2.4
			s-2.2-3.9-2.2-7.4V64.8H17.8l-2.2,6.1h4.7v16.9c0,15.8,12.3,17.1,16.1,17.1c9.8,0,16.1-6.3,16.1-16.1V71h2.8l2.2-6.1H43.9V64.7z"
			/>
		<path class="st2" d="M97.3,70.7v33.1h-4.6c0,0-21.5-22.6-22.9-24.2c0,3.2,0,18.1,0,18.1H74l-2.2,6.1H57.9l2.2-6.1h2.4v-27h-5.1
			l2.2-6.1h8.5c0,0,16.4,17.1,22.1,23.2c0-1.9,0-17.1,0-17.1h-4.1l2.2-6.1h14.2l-2.2,6.1L97.3,70.7z"/>
		<path class="st3" d="M134.3,73.3c0,0.7-0.6,1.2-1.2,1.2c-0.7,0-1.2-0.6-1.2-1.2c0-0.7,0.6-1.2,1.2-1.2
			C133.7,72,134.3,72.6,134.3,73.3z M131.9,73.3c0,0.6,0.5,1.1,1.1,1.1s1.1-0.5,1.1-1.1s-0.5-1.1-1.1-1.1
			C132.4,72.1,131.9,72.6,131.9,73.3z M132.6,72.5h0.5c0.3,0,0.5,0.1,0.5,0.4c0,0.2-0.2,0.4-0.4,0.4l0.4,0.7h-0.1l-0.4-0.7h-0.4V74
			h-0.1V72.5z M132.7,73.2h0.3c0.2,0,0.5,0,0.5-0.3c0-0.2-0.2-0.3-0.4-0.3h-0.4L132.7,73.2L132.7,73.2z"/>
	</g>
	<g id="eagle_3_">
		<g>
			<g>
				<g class="st4">
					<path class="st5" d="M91.5,49.1c0-0.1,0.1-0.3,0.1-0.6c0-0.6-0.2-1.3-1-2c-1.1-0.9-3.5-3.2-4-3.7c0.1-0.3,0.1-0.8,0.1-1.6
						c0-1.9-0.5-5.1-3.4-8.5c-0.4-0.5-3.6-4-6.6-7.4c-2.5-2.8-4.9-5.5-5.1-5.7c-0.4-0.4-0.4-0.8-0.4-1c0-0.1,0-0.2,0-0.2v-0.1v-0.1
						l-0.5-1.3L69,20.6l0,0c0,0.1-0.1,0.4-0.1,0.7c0,0.3,0.1,0.6,0.2,0.8c0.2,0.3,0.5,0.7,0.7,0.9c-0.1,0.3-1,2.2-1,2.2
						s-0.1,0.2-0.1,0.5c0,0.1,0,0.2,0.1,0.4c-2.1-1.9-4.5-4.1-7.3-6.7C61.1,19,61,18.5,61,18.1c0-0.3,0.1-0.5,0.1-0.5v-0.1v-0.1
						l-0.5-1.2l-0.3,0.5l-2,4.4l0,0c-0.1,0.3-0.2,0.7-0.2,1c0,0.6,0.3,1.2,0.8,1.7c-0.2,0.3-1.1,2.3-1.1,2.3l0,0
						c-0.1,0.3-0.2,0.6-0.2,0.9c0,1.1,0.9,1.9,1.5,2.3c-0.2,0.4-1,2.2-1,2.2c-0.1,0.2-0.2,0.4-0.2,0.7c0,1,1.1,1.7,1.8,2.1l0.2,0.1
						c0.3,0.2,7.9,4.7,15.1,9c-1.7,0-7.6,0-7.6,0c-1.1,0-1.5-0.3-1.5-0.3L65.5,43h-0.1h-1.6l7,6.7c0.6,0.6,1.3,1,3.2,0.5
						c0.6-0.2,3.1-1,3.8-1.2c0.2,0.1,1.7,0.7,1.8,0.8c1.7,2.3,3.6,3.7,4.5,4.3c0,0.2-0.1,0.3-0.1,0.5c0,0.5,0.2,0.9,0.3,0.9l0.5,0.9
						l0.4-0.9c0.3-0.7,1.1-1.1,1.6-1c0.2,0,0.2,0.5,0.2,0.7l-0.1,0.6c0,0,0.5-0.3,0.8-0.6c1.1-1,0.8-2,0.4-2.4
						c-0.4-0.5-1.1-0.6-1.9-0.4c0-0.1-0.6-1-0.7-1.4c0.3-0.2,1-0.6,1.1-0.6c0.2,0,0.9,0.2,1.1,0.2c0.1,0.1,0.2,0.4,0.2,0.4h0.2
						c1.5,0.2,1.8,0.3,1.9,0.4c0,0.1-0.1,0.3-0.4,0.5s-0.5,0.4-0.5,0.4s0.3,0.1,0.6,0.2c0.3,0,1.8,0.1,2.6-1c0,0,0.2-0.3,0.2-0.6
						C92.6,50.4,92.4,49.8,91.5,49.1z"/>
					<path class="st5" d="M92.2,51c-0.7,1.1-2.3,1-2.3,1s0.5-0.3,0.5-0.7c0.1-0.5-2.2-0.7-2.2-0.7L88,50.3L86.6,50
						c0,0-1.2,0.6-1.5,0.8c0.2,0.3,0.8,1.6,1,1.8c0.4-0.1,1.4-0.4,1.8,0.2c0.7,0.9-0.3,1.9-0.4,2S87.2,55,87.2,55s0.2-1-0.3-1.1
						c-0.6-0.1-1.5,0.3-1.9,1.1l-0.2,0.4L84.6,55c0,0-0.2-0.4-0.2-0.8c0-0.2,0-0.4,0.1-0.6c-0.7-0.4-2.8-1.9-4.6-4.4
						c-0.1,0-1.8-0.8-2-0.9c-0.5,0.2-3.3,1-3.9,1.2c-1.8,0.5-2.3,0.1-2.9-0.4L64.7,43h0.8c0,0,0.5,0.4,1.7,0.4c0,0,7.2,0,8.7,0
						c-7.3-4.4-15.7-9.3-16-9.5l-0.2-0.1c-0.6-0.3-1.6-0.9-1.6-1.8c0-0.2,0-0.3,0.1-0.5c0,0,1.1-2.3,1.1-2.4
						c-0.5-0.4-1.6-1.1-1.6-2.2c0-0.2,0-0.5,0.2-0.7l0,0c0,0,1.2-2.4,1.2-2.5c-0.5-0.5-0.8-1.1-0.8-1.7c0-0.3,0.1-0.6,0.2-0.9l0,0
						l0,0l2-4.3l0.3,0.6c0,0-0.1,0.2-0.1,0.5c0,0.4,0.1,1,0.6,1.5c0,0,19.9,18.2,19.9,18.3l-11.7-11c-0.8-0.7-0.4-1.4-0.4-1.4
						l1.1-2.4c0,0-0.5-0.6-0.8-1s-0.1-1.2-0.1-1.2l1.4-3l0.3,0.6c0,0-0.2,0.7,0.5,1.5C71.8,20.3,82.2,32,83.1,33
						c4.4,5.2,3.1,10,3.1,10s2.9,2.8,4.2,3.9c1.3,1.1,0.7,2.4,0.7,2.4C92.7,50.4,92.2,51,92.2,51z"/>
				</g>
				<path class="st2" d="M82.7,40L61.1,19.8c-1-1-0.6-2.3-0.6-2.3l-1.8,3.9c-0.5,1.2,0.3,2,0.8,2.4s17.3,14,17.3,14v0.6L60.1,25.6
					C59.3,25,59.4,24,59.4,24l-1.2,2.5c-0.6,1.4,0.9,2.3,1.5,2.7c0.6,0.4,17.2,12,17.2,12l0.1,0.7c0,0-16.1-10.7-16.7-11.1
					c-0.7-0.4-0.7-1.5-0.7-1.5l-1.2,2.5c-0.5,1,0.9,1.7,1.5,2.1c0.4,0.2,9.4,5.6,16.8,10h-9.6c-1.4,0-1.9-0.4-1.9-0.4l1.3,1.2
					c0.2,0.2,0.8,0.9,1.7,0.9c0.6,0,3.6,0,3.6,0l0.7,0.3l-3.1,0.2c-0.6,0-0.8,0.1-1.6-0.4l1.4,1.3c0.4,0.3,0.7,0.7,1.4,0.6
					c0.7-0.1,4.6-0.7,4.6-0.7l0.6,0.3l-4.1,0.9c-0.9,0.2-1.6-0.3-1.6-0.3s0.8,0.8,1.3,1.3s1,0.8,2.7,0.4c0.7-0.2,4-1.2,4-1.2
					l2.1,0.9c2.2,3,4.8,4.6,4.8,4.6c-0.5,0.6-0.1,1.3-0.1,1.3c0.4-0.9,1.4-1.4,2.2-1.3c0.7,0.1,0.5,0.9,0.5,0.9
					c0.4-0.5,0.7-1.1,0.3-1.6C87.3,52.4,86,53,86,53l-1.2-2.3l1.7-1C87.4,44,82.7,40,82.7,40z"/>
				<path class="st2" d="M81.6,31.6C81.3,31.3,71.2,20,71.2,20c-0.9-1-0.6-1.7-0.5-1.8l-1.2,2.6c-0.3,0.7,0.2,1.2,0.6,1.6
					C70.5,22.9,81,33.9,81,33.9v0.6l-10-10c-0.8-0.8-0.6-1.4-0.5-1.5l-1.1,2.4c-0.2,0.7,0.5,1.2,1.1,1.8C71,27.7,82.1,38.1,83,39
					c1.9,1.8,2.9,4.1,2.9,4.1C87,37.3,82.7,32.9,81.6,31.6z"/>
				<path class="st2" d="M90.1,49.4c-0.1-0.7-0.9-1.7-0.9-1.7s1.6,1.5,1.7,1.6c0,0,0.5-1.1-0.5-2.1c-1.5-1.4-4.5-4.1-4.5-4.1
					c0.2,0.7,1.4,2.8,0.8,6.7l1.5,0.3l0.2,0.3c0,0,1.7,0.2,2,0.5c0,0,0.6,0.4,0,1c0,0,1-0.2,1.5-0.7c0,0,0.5-0.4-0.1-1l-0.9-0.8
					C90.6,49.2,90.1,49.4,90.1,49.4z"/>
			</g>
		</g>
		<g>
			<path class="st2" d="M87.2,42.3L87.2,42.3L87,42.4V43h-0.1v-0.6h-0.2v-0.1C86.7,42.3,87.2,42.3,87.2,42.3z"/>
			<path class="st2" d="M87.3,42.3L87.3,42.3l0.3,0.6l0.2-0.6h0.1V43h-0.1v-0.4c0,0,0,0,0-0.1v-0.1L87.6,43h-0.1l-0.2-0.6l0,0
				c0,0,0,0,0,0.1v0.1V43h-0.1L87.3,42.3L87.3,42.3z"/>
		</g>
	</g>
</g>
<g>
	<g>
		<path class="st2" d="M37,128.1v-12.9h8.8v2.8h-5.6v2.2H45v2.8h-4.8v2.3h5.6v2.8H37z"/>
		<path class="st2" d="M52.4,128.2c-2,0-3.6-0.4-4.9-1.7l2-2c0.7,0.7,1.8,0.9,2.9,0.9c1.2,0,1.8-0.4,1.8-1.2c0-0.3-0.1-0.6-0.3-0.8
			c-0.2-0.2-0.4-0.3-0.9-0.3l-1.6-0.2c-1.1-0.2-2-0.5-2.6-1.1s-0.9-1.5-0.9-2.6c0-2.4,1.8-4.1,4.7-4.1c1.8,0,3.2,0.4,4.3,1.5l-2,2
			c-0.8-0.8-1.9-0.8-2.4-0.8c-1.1,0-1.6,0.6-1.6,1.2c0,0.2,0.1,0.4,0.3,0.6s0.4,0.3,0.9,0.4l1.6,0.2c1.2,0.2,2,0.5,2.5,1.1
			c0.7,0.7,1,1.6,1,2.8C57.3,126.7,55.1,128.2,52.4,128.2z"/>
		<path class="st2" d="M64.9,118v10.1h-3.2V118h-3.2v-2.8H68v2.8H64.9z"/>
		<path class="st2" d="M68.5,128.1v-3.3h3.3v3.3H68.5z"/>
		<path class="st2" d="M80.3,128.1v-9.7l-2.8,2.4v-3.2l2.8-2.4h3v12.9H80.3z"/>
		<path class="st2" d="M90.6,128.2c-2.4,0-4.3-1.3-4.3-4c0-1.6,1-2.4,1.5-2.8c-0.5-0.4-1.3-1.2-1.3-2.6c0-2.4,2-3.8,4.2-3.8
			s4.2,1.4,4.2,3.8c0,1.4-0.9,2.2-1.3,2.6c0.5,0.4,1.5,1.2,1.5,2.8C94.9,126.9,92.9,128.2,90.6,128.2z M90.6,122.8
			c-0.7,0-1.4,0.6-1.4,1.4s0.6,1.4,1.4,1.4c0.7,0,1.4-0.6,1.4-1.4S91.3,122.8,90.6,122.8z M90.6,117.7c-0.7,0-1.2,0.5-1.2,1.2
			s0.5,1.2,1.2,1.2s1.2-0.5,1.2-1.2C91.8,118.3,91.3,117.7,90.6,117.7z"/>
		<path class="st2" d="M103.7,123l-2.5,5.1h-3.3l2.6-5.1c-0.3,0.1-0.5,0.1-0.7,0.1c-1.6,0-3.4-1.3-3.4-3.9c0-2.7,2-4.1,4.3-4.1
			s4.3,1.4,4.3,4.1C104.9,120.5,104.3,121.7,103.7,123z M100.6,117.7c-0.7,0-1.3,0.5-1.3,1.5s0.6,1.5,1.3,1.5c0.7,0,1.3-0.5,1.3-1.5
			C101.9,118.3,101.3,117.7,100.6,117.7z"/>
		<path class="st2" d="M110.9,128.2c-2.1,0-4.2-1.4-4.2-4v-5.1c0-2.7,2-4,4.2-4c2.1,0,4.1,1.4,4.1,4v5.1
			C115,126.8,113,128.2,110.9,128.2z M112.1,119.1c0-0.9-0.5-1.3-1.2-1.3c-0.6,0-1.2,0.4-1.2,1.3v5.1c0,0.9,0.5,1.3,1.2,1.3
			c0.6,0,1.2-0.4,1.2-1.3V119.1z"/>
	</g>
</g>
</svg>
